<?xml version="1.0" encoding="utf-8"?>
<!-- Generator: Adobe Illustrator 19.1.1, SVG Export Plug-In . SVG Version: 6.00 Build 0)  -->
<svg version="1.1" id="Слой_1" xmlns="http://www.w3.org/2000/svg" xmlns:xlink="http://www.w3.org/1999/xlink" x="0px" y="0px"
	 viewBox="0 0 600 600" style="enable-background:new 0 0 600 600;" xml:space="preserve">
<style type="text/css">
	.st0{fill:#36A9E1;stroke:#000000;stroke-width:2;stroke-miterlimit:10;}
	.st1{fill:#B2B2B2;stroke:#000000;stroke-width:2;stroke-linecap:round;stroke-miterlimit:10;}
	.st2{fill:#9D9D9C;stroke:#000000;stroke-width:2;stroke-linecap:round;stroke-miterlimit:10;}
	.st3{fill:none;stroke:#000000;stroke-width:2;stroke-linecap:round;stroke-miterlimit:10;}
	.st4{fill:#F0869D;stroke:#000000;stroke-width:2;stroke-linecap:round;stroke-miterlimit:10;}
	.st5{fill:#29235C;stroke:#000000;stroke-width:2;stroke-linecap:round;stroke-miterlimit:10;}
	.st6{fill:#F39200;stroke:#000000;stroke-width:2;stroke-linecap:round;stroke-miterlimit:10;}
	.st7{fill:#F9B233;stroke:#000000;stroke-width:2;stroke-linecap:round;stroke-miterlimit:10;}
	.st8{fill:#E94E1B;stroke:#000000;stroke-width:2;stroke-linecap:round;stroke-miterlimit:10;}
	.st9{fill:#EB5B1D;stroke:#000000;stroke-width:2;stroke-linecap:round;stroke-miterlimit:10;}
	.st10{fill:#E94E1B;stroke:#000000;stroke-width:2;stroke-linecap:round;stroke-linejoin:round;stroke-miterlimit:10;}
	.st11{fill:#EB5B1D;stroke:#000000;stroke-width:2;stroke-linecap:round;stroke-linejoin:round;stroke-miterlimit:10;}
</style>
<circle class="st0" cx="271.8" cy="247.8" r="200"/>
<g>
	<g>
		<path class="st1" d="M302.8,201.2c1-0.5,2-1.1,3-1.5c5.1-2.4,10.8-3.4,16.4-2.8c0.2,0,0.3,0,0.5,0.1c0.2,0.1,0.2,0.3,0.3,0.5
			c1.9,7.1,1.6,14.7-0.9,21.6"/>
		<path class="st1" d="M238.6,196c-0.9-0.6-2.6-2.3-3.6-2.9c-4.8-2.9-10.4-4.5-16-4.5c-0.2,0-0.3,0-0.5,0.1
			c-0.2,0.1-0.2,0.3-0.3,0.5c-2.6,6.8-3.1,14.5-1.4,21.6"/>
		
			<ellipse transform="matrix(5.233555e-002 -0.9986 0.9986 5.233555e-002 25.3249 483.6558)" class="st2" cx="267.5" cy="228.5" rx="36.5" ry="57"/>
		<path class="st3" d="M231.1,216.8c-0.2,2,0.7,4,2.1,5.4c1.5,1.4,3.4,2.2,5.3,2.7c6.1,1.6,12.9,0,17.7-4.1"/>
		<path class="st3" d="M277.8,220.9c-0.2,2,0.7,4,2.1,5.4s3.4,2.2,5.3,2.7c6.1,1.6,12.9,0,17.7-4.1"/>
		<path class="st4" d="M263.9,243.2c-2.4-1.3-3.9-4.5-2.9-7.1c0.2-0.6,5.2-0.7,5.9-0.5c3.2,0.9,3.6,3.4,1.4,5.5
			c-1.1,1.1-2.4,2.3-4,2.3c-0.3,3.2-0.5,6.9-0.5,10.1"/>
		<path class="st3" d="M252.2,249.2c3.4,2.2,5.9,4.2,10.1,4.6c6,0.7,12.6-0.6,18.2-2.9"/>
		<path class="st3" d="M248.5,262.6c14,1.9,28.3,3,42.2,0.3"/>
		<path class="st2" d="M302.8,258.3c7.9,29.1,13.2,61.9,11.4,92.3c-0.2,3.7-2.8,6.9-6.4,8c-23.6,7.1-58,16.2-81.6,8.1
			c-5.1-1.7-8.6-6.2-9.3-11.5c-2.8-20.6,0.6-41.8,2.4-62.2c2-13,6-25,10-37c1,0,2,1,3.3,1.9"/>
		<g>
			<path class="st5" d="M330.2,305.6c-2.4-5-3.2-10.7-4.7-16c-2.1-7.5-5.6-14.6-10.2-20.9c-1-1.3-2.1-2.6-3.5-3.4
				c-1.5-0.8-3.4-0.8-4.6,0.3l-0.8,0.2c0.1-0.5,0.1-1,0.1-1.5l-0.3,0c0.2-0.2,0.4-0.5,0.6-0.8c1.6-2.5,2-5.8,0.4-8.3
				c-4.1-0.3-7.6,2.6-11.3,4.5c-4.4,2.3-9.3,3.2-14.3,3.8l-28-0.9c0,0-0.1,0-0.1,0c-3.2-0.5-6.5-1.2-9.5-2.4
				c-6.8-2.6-12.7-7.4-19.8-8.7l0.2,0.1c-2,0.1-3.2,2.2-3.2,4.2c0,2.5,1.5,4.6,3.4,6.2c-1.6,3.9-2.9,8.7-0.1,11.7
				c1.2,1.3,3,1.9,4.7,2.4c20.7,6.3,43.1,6.4,63.8,0.3c5.7-1.7,12.2-5.1,13.2-10.6c7.2,3.7,9.1,12.8,11.1,20.6
				c3.6,14.5,9.8,28.3,18.1,40.7c0.4-4.2-0.7-8.5-2.9-12c3.4,0.2,6.8,0.3,10.1,0.5C337.2,315.2,332.6,310.7,330.2,305.6z"/>
			<path class="st5" d="M308,264.9c0.1-0.3,0.2-0.6,0.3-0.9c-0.2,0.2-0.3,0.4-0.5,0.6L308,264.9z"/>
			<path class="st5" d="M344.4,287.1c-4.1-3.9-6.9-8.8-9.3-13.9c-1.2-2.6-2.4-5.2-4.4-7.3c-1.7-1.8-3.8-3-6-4.1
				c-2.9-1.5-6.1-2.8-9.3-2.5c-2.9,0.2-5.9,1.9-7,4.6c2.4-2.7,7.2-2.5,10.2-0.3c3.3,2.4,5,6.2,6.9,9.7c2.4,4.6,5.2,9,8.3,13.2
				c2.8,3.8,6,7.5,10,10.2c4,2.6,8.9,4.1,13.6,3.2c-4.3-1.1-8.3-3.4-11.3-6.6c3.9-0.1,7.8-0.1,11.7-0.2
				C352.8,293.1,348,290.6,344.4,287.1z"/>
			<path class="st5" d="M359.5,293.2c-0.6,0-1.2,0-1.8,0C358.3,293.3,358.9,293.2,359.5,293.2z"/>
		</g>
	</g>
	<path class="st3" d="M218.6,190c2.1,4.3,3.5,9,4.2,13.7"/>
	<path class="st3" d="M322.2,199c-0.9-0.4-1.8,0.5-2.3,1.3c-1.8,2.6-3.7,5.2-5.5,7.9"/>
</g>
<g>
	<path class="st6" d="M171.4,261.7c-0.6,0-0.8-0.7-0.8-1.3c0.1-2.3,1.7-4.4,3.6-5.6c2-1.2,4.3-1.8,6.5-2.3c0.8-0.2,1.6-0.4,2.4-0.2
		c0.6,0.2,1.2,0.6,1.7,1c1.9,1.7,3.2,3.9,5,5.6c1.8,1.7,4.5,3,6.8,2.1"/>
	<path class="st7" d="M164.1,259.3c1.7,2.4,4.6,3.2,6.4,5.4c1.8,2.2,1.7,5,4.4,6.8c2,1.4,4.7,1.8,7.1,1c1.7-0.5,3.1-1.6,4.6-2.6
		c3-2.2,6-4.4,8.6-7.1c-6.7-1-13.8-1.5-20.6-1.6c-1.1,0-2.3,0.1-3,0.9c-0.4,0.5-0.6,1.4-1.3,1.5"/>
</g>
<g>
	<path class="st8" d="M357.8,248.4c-0.6,0-0.8-0.7-0.8-1.3c0.1-2.3,1.7-4.4,3.6-5.6c2-1.2,4.3-1.8,6.5-2.3c0.8-0.2,1.6-0.4,2.4-0.2
		c0.6,0.2,1.2,0.6,1.7,1c1.9,1.7,3.2,3.9,5,5.6c1.8,1.7,4.5,3,6.8,2.1"/>
	<path class="st9" d="M350.5,245.9c1.7,2.4,4.6,3.2,6.4,5.4c1.8,2.2,1.7,5,4.4,6.8c2,1.4,4.7,1.8,7.1,1c1.7-0.5,3.1-1.6,4.6-2.6
		c3-2.2,6-4.4,8.6-7.1c-6.7-1-13.8-1.5-20.6-1.6c-1.1,0-2.3,0.1-3,0.9c-0.4,0.5-0.6,1.4-1.3,1.5"/>
</g>
<g>
	<path class="st8" d="M120.7,220.3c-0.6,0-0.8-0.7-0.8-1.3c0.1-2.3,1.7-4.4,3.6-5.6c2-1.2,4.3-1.8,6.5-2.3c0.8-0.2,1.6-0.4,2.4-0.2
		c0.6,0.2,1.2,0.6,1.7,1c1.9,1.7,3.2,3.9,5,5.6c1.8,1.7,4.5,3,6.8,2.1"/>
	<path class="st9" d="M113.4,217.9c1.7,2.4,4.6,3.2,6.4,5.4c1.8,2.2,1.7,5,4.4,6.8c2,1.4,4.7,1.8,7.1,1c1.7-0.5,3.1-1.6,4.6-2.6
		c3-2.2,6-4.4,8.6-7.1c-6.7-1-13.8-1.5-20.6-1.6c-1.1,0-2.3,0.1-3,0.9c-0.4,0.5-0.6,1.4-1.3,1.5"/>
</g>
<g>
	<path class="st6" d="M390.4,207c-0.6,0-0.8-0.7-0.8-1.3c0.1-2.3,1.7-4.4,3.6-5.6c2-1.2,4.3-1.8,6.5-2.3c0.8-0.2,1.6-0.4,2.4-0.2
		c0.6,0.2,1.2,0.6,1.7,1c1.9,1.7,3.2,3.9,5,5.6c1.8,1.7,4.5,3,6.8,2.1"/>
	<path class="st7" d="M383.1,204.6c1.7,2.4,4.6,3.2,6.4,5.4c1.8,2.2,1.7,5,4.4,6.8c2,1.4,4.7,1.8,7.1,1c1.7-0.5,3.1-1.6,4.6-2.6
		c3-2.2,6-4.4,8.6-7.1c-6.7-1-13.8-1.5-20.6-1.6c-1.1,0-2.3,0.1-3,0.9c-0.4,0.5-0.6,1.4-1.3,1.5"/>
</g>
<g>
	<path class="st10" d="M130.4,312c-0.6,0-0.8-0.7-0.8-1.3c0.1-2.3,1.7-4.4,3.6-5.6c2-1.2,4.3-1.8,6.5-2.3c0.8-0.2,1.6-0.4,2.4-0.2
		c0.6,0.2,1.2,0.6,1.7,1c1.9,1.7,3.2,3.9,5,5.6c1.8,1.7,4.5,3,6.8,2.1"/>
	<path class="st11" d="M123.1,309.6c1.7,2.4,4.6,3.2,6.4,5.4c1.8,2.2,1.7,5,4.4,6.8c2,1.4,4.7,1.8,7.1,1c1.7-0.5,3.1-1.6,4.6-2.6
		c3-2.2,6-4.4,8.6-7.1c-6.7-1-13.8-1.5-20.6-1.6c-1.1,0-2.3,0.1-3,0.9c-0.4,0.5-0.6,1.4-1.3,1.5"/>
</g>
<path class="st3" d="M394.1,238.4c2.3,3.5,6.4,5.7,10.6,6.3s8.5-0.2,12.4-1.7c2.6-1,5.2-2.3,8-2.2c2.7,0.1,5.1,1.5,7.6,2.3
	c5.8,1.9,13,0.3,16.3-4.7l-0.9,1.4c5.7-6.7,4.8-16.7-1.9-22.4c-5.4-4.5-13.4-3.8-17.9,1.5c-3.6,4.3-3.1,10.7,1.2,14.3
	c3.4,2.9,8.6,2.5,11.5-1c2.3-2.8,2-6.9-0.8-9.2c-2.2-1.9-5.5-1.6-7.3,0.6c-1.5,1.8-1.3,4.4,0.5,5.9c1.4,1.2,3.5,1,4.7-0.4"/>
<path class="st3" d="M147.6,340.4c1.9,2.5,5.1,4.1,8.4,4.5s6.8-0.1,9.9-1.2c2.1-0.7,4.2-1.7,6.4-1.6c2.1,0.1,4.1,1,6.1,1.6
	c4.6,1.3,10.3,0.2,13-3.4l-0.7,1c4.5-4.8,3.8-12-1.5-16c-4.3-3.2-10.7-2.7-14.3,1.1c-2.9,3.1-2.4,7.7,1,10.3
	c2.7,2.1,6.8,1.8,9.2-0.7c1.8-2,1.6-4.9-0.6-6.6c-1.8-1.3-4.4-1.1-5.9,0.5c-1.2,1.3-1,3.1,0.4,4.2c1.1,0.8,2.8,0.7,3.7-0.3"/>
<path class="st3" d="M138.6,182.1c2.3,3.5,6.4,5.7,10.6,6.3s8.5-0.2,12.4-1.7c2.6-1,5.2-2.3,8-2.2c2.7,0.1,5.1,1.5,7.6,2.3
	c5.8,1.9,13,0.3,16.3-4.7l-0.9,1.4c5.7-6.7,4.8-16.7-1.9-22.4c-5.4-4.5-13.4-3.8-17.9,1.5c-3.6,4.3-3.1,10.7,1.2,14.3
	c3.4,2.9,8.6,2.5,11.5-1c2.3-2.8,2-6.9-0.8-9.2c-2.2-1.9-5.5-1.6-7.3,0.6c-1.5,1.8-1.3,4.4,0.5,5.9c1.4,1.2,3.5,1,4.7-0.4"/>
<path class="st3" d="M380.1,322.9c1.4,0.4,2.6-0.7,3.9-1.4c2.9-1.4,6.3-0.1,8.9,1.8c1.2,0.8,2.3,1.7,3.7,2.2c1.3,0.5,2.7,0.5,4,0.5
	c5.6-0.1,11.5-1.8,14.9-6.2l-0.2,0.3c2.9-3.8,2.2-9.1-1.6-12c-3-2.3-7.3-1.7-9.6,1.3c-1.8,2.4-1.4,5.8,1,7.7
	c1.9,1.5,4.7,1.1,6.1-0.8c1.2-1.5,0.9-3.7-0.7-4.9c-1.2-0.9-3-0.7-3.9,0.5c-0.8,1-0.6,2.4,0.4,3.1c0.8,0.6,1.9,0.5,2.5-0.3
	c0.5-0.6,0.4-1.5-0.3-2"/>
<path class="st3" d="M111.1,262.5c1.4,0.4,2.6-0.7,3.9-1.4c2.9-1.4,6.3-0.1,8.9,1.8c1.2,0.8,2.3,1.7,3.7,2.2c1.3,0.5,2.7,0.5,4,0.5
	c5.6-0.1,11.5-1.8,14.9-6.2l-0.2,0.3c2.9-3.8,2.2-9.1-1.6-12c-3-2.3-7.3-1.7-9.6,1.3c-1.8,2.4-1.4,5.8,1,7.7
	c1.9,1.5,4.7,1.1,6.1-0.8c1.2-1.5,0.9-3.7-0.7-4.9c-1.2-0.9-3-0.7-3.9,0.5c-0.8,1-0.6,2.4,0.4,3.1c0.8,0.6,1.9,0.5,2.5-0.3
	c0.5-0.6,0.4-1.5-0.3-2"/>
</svg>
